<?xml version="1.0" encoding="utf-8"?>
<!-- Generator: Adobe Illustrator 25.3.1, SVG Export Plug-In . SVG Version: 6.00 Build 0)  -->
<svg version="1.1" id="Layer_1" xmlns="http://www.w3.org/2000/svg" xmlns:xlink="http://www.w3.org/1999/xlink" x="0px" y="0px"
	 viewBox="0 0 128 128" style="enable-background:new 0 0 128 128;" xml:space="preserve">
<style type="text/css">
	.st0{fill:#666666;}
</style>
<g>
	<path class="st0" d="M128,30.7c-0.8,3-2.9,5.1-5,7.2c-24.4,24.4-48.9,48.8-73.3,73.3c-3.5,3.5-7.1,3.5-10.6,0
		C27.2,99.2,15.3,87.3,3.3,75.5c-4.4-4.3-4.5-11,0-15c1.5-1.3,2.8-2.8,4.3-4.2c1.7-1.7,3.8-2.5,6.2-2.6c3.5-0.2,6,1.1,8.4,3.5
		c7,7.2,14.2,14.2,21.3,21.3c0.7,0.7,1.1,0.7,1.8,0c20.2-20.3,40.5-40.5,60.8-60.8c1.6-1.6,3.4-2.8,5.7-3.2c3-0.6,5.7,0.1,7.9,2
		c2.2,1.9,4.1,4,6.1,6.1c1.2,1.2,1.6,2.8,2.1,4.4C128,28.2,128,29.4,128,30.7z"/>
</g>
</svg>
