<?xml version="1.0" encoding="utf-8"?>
<!-- Generator: Adobe Illustrator 23.1.0, SVG Export Plug-In . SVG Version: 6.00 Build 0)  -->
<svg version="1.1" id="Layer_1" xmlns="http://www.w3.org/2000/svg" xmlns:xlink="http://www.w3.org/1999/xlink" x="0px" y="0px"
	 viewBox="0 0 26 26" style="enable-background:new 0 0 26 26;" xml:space="preserve">
<style type="text/css">
	.st0{fill:#634c5a;}
	.st1{fill:#634c5a;}
</style>
<g>
	<path class="st1" d="M21.5,3.3h-2.1V2.2c0-0.4-0.3-0.7-0.7-0.7S18,1.8,18,2.2v1.1H8V2.2c0-0.4-0.3-0.7-0.7-0.7S6.5,1.8,6.5,2.2v1.1
		H4.5c-1.6,0-3,1.3-3,3v15.3c0,1.6,1.3,3,3,3h17.1c1.6,0,3-1.3,3-3V6.3C24.5,4.6,23.2,3.3,21.5,3.3z M4.5,4.7h2.1v0.7
		c0,0.4,0.3,0.7,0.7,0.7C7.6,6.2,8,5.9,8,5.5V4.7H18v0.7c0,0.4,0.3,0.7,0.7,0.7s0.7-0.3,0.7-0.7V4.7h2.1c0.8,0,1.5,0.7,1.5,1.5V8
		H2.9V6.3C2.9,5.4,3.6,4.7,4.5,4.7z M21.5,23.1H4.5c-0.8,0-1.5-0.7-1.5-1.5V9.4h20.1v12.1C23.1,22.4,22.4,23.1,21.5,23.1z"/>
</g>
</svg>
